# xmcd CD database file
#
# Track frame offsets:
#	150
#	17603
#	37580
#	51281
#	67707
#	89326
#	108829
#	124294
#	141755
#	156926
#	173795
#	189379
#	205923
#	236361
#	245811
#
# Disc length: 3536 seconds
#
# Revision: 1
# Processed by: cddbd v1.5.2PL0 Copyright (c) Steve Scherf et al.
# Submitted via: CDex 1.51
#
DISCID=c00dce0f
DTITLE=divers - Best of the world (Les musiques du routard)
DYEAR=1998
DGENRE=Country
TTITLE0=El Pescator (Toto la Momposina y sus Tambores - Colombie)
TTITLE1=Hasta Siempre (Soledad bravo - Venezuela)
TTITLE2=Vov Pa Mayari (Compay Segundo - Cuba)
TTITLE3=Mama Africa (Chico Cesar - Brésil)
TTITLE4=Sodade (Cesaria Evora - Cap Vert)
TTITLE5=Ye Ye Ye (Geoffrey Orvema - Ouganda)
TTITLE6=Wa Winjigo Ero (Ayub Ogada - Kenya)
TTITLE7=Souhaits Pour l'Eveil - Edit (Lama Gyourmé and JeanPhilippe Rykiel - Tibet)
TTITLE8=Crest - Radio Edit (NusratTateh Ali Khan and Party - Pakistan)
TTITLE9=Ma Ma (Cheb Mami - Algérie)
TTITLE10=Moustahil (Natacha Atlas - Moyen-Orient)
TTITLE11=Alahoui - Radio Edit (Orchestre National de Barbes - France -Algérie)
TTITLE12=Fear-Allabain (Capercaillie - Ecosse)
TTITLE13=Silencio (Madredeus - Portugal)
TTITLE14=Ya Basta! (Subcomandante Marcos - Chiapas)
EXTD=YEAR: 1998
EXTT0=
EXTT1=
EXTT2=
EXTT3=
EXTT4=
EXTT5=
EXTT6=
EXTT7=
EXTT8=
EXTT9=
EXTT10=
EXTT11=
EXTT12=
EXTT13=
EXTT14=
PLAYORDER=
